<svg xmlns="http://www.w3.org/2000/svg" version="1.1" xmlns:xlink="http://www.w3.org/1999/xlink" xmlns:svgjs="http://svgjs.dev/svgjs" width="2000" height="409" viewBox="0 0 2000 409"><g transform="matrix(1,0,0,1,-1.2121212121212466,-0.1564474804878273)"><svg viewBox="0 0 396 81" data-background-color="#ffffff" preserveAspectRatio="xMidYMid meet" height="409" width="2000" xmlns="http://www.w3.org/2000/svg" xmlns:xlink="http://www.w3.org/1999/xlink"><defs></defs><g id="tight-bounds" transform="matrix(1,0,0,1,0.2400000000000091,0.030983486355779633)"><svg viewBox="0 0 395.52 80.93803302728845" height="80.93803302728845" width="395.52"><g><svg viewBox="0 0 541.9685447851912 110.90682639961383" height="80.93803302728845" width="395.52"><g><rect width="5.788293270770527" height="110.90682639961383" x="125.50765132915753" y="0" fill="#e8c50f" opacity="1" stroke-width="0" stroke="transparent" fill-opacity="1" class="rect-si-0" data-fill-palette-color="primary" rx="1%" id="si-0" data-palette-color="#e8c50f"></rect></g><g transform="matrix(1,0,0,1,146.44854478519122,0.2758876278597313)"><svg viewBox="0 0 395.52 110.35505114389437" height="110.35505114389437" width="395.52"><g><svg viewBox="0 0 395.52 110.35505114389437" height="110.35505114389437" width="395.52"><g><svg viewBox="0 0 395.52 69.38947368421053" height="69.38947368421053" width="395.52"><g transform="matrix(1,0,0,1,0,0)"><svg width="395.52" viewBox="0.49999999999999645 -36 228 37" height="69.38947368421053" data-palette-color="#e8c50f"><svg></svg><g class="undefined-text-0" data-fill-palette-color="primary" id="text-0"><path d="M20.25-30.75l-7.5 18.5h15.5l-7.5-18.5zM14.75-35h11.5l14.25 35h-7.2l-3.3-8.5h-19l-3.3 8.5h-7.2zM43.5-10.25v-15.75h7v15.75c0 2.4 0.6 4.123 1.8 5.17 1.2 1.053 2.933 1.58 5.2 1.58v0h6.5v-22.5h7v26h-13.5c-4.767 0-8.293-0.86-10.58-2.58-2.28-1.713-3.42-4.27-3.42-7.67zM92-3.5h6.25v-19h-6.25c-1.133 0-2.173 0.173-3.12 0.52-0.953 0.353-1.773 0.913-2.46 1.68-0.68 0.767-1.21 1.75-1.59 2.95-0.387 1.2-0.58 2.65-0.58 4.35v0c0 1.7 0.193 3.15 0.58 4.35 0.38 1.2 0.91 2.183 1.59 2.95 0.687 0.767 1.507 1.323 2.46 1.67 0.947 0.353 1.987 0.53 3.12 0.53zM105.25 0h-13.25c-2.3 0-4.393-0.3-6.28-0.9-1.88-0.6-3.487-1.467-4.82-2.6-1.333-1.133-2.357-2.5-3.07-4.1-0.72-1.6-1.08-3.4-1.08-5.4v0c0-2 0.36-3.8 1.08-5.4 0.713-1.6 1.737-2.967 3.07-4.1 1.333-1.133 2.94-2 4.82-2.6 1.887-0.6 3.98-0.9 6.28-0.9v0h6.25v-9h7zM119.5-25.5v25.5h-7v-25.5zM119.75-32.25v0c0 1-0.343 1.873-1.03 2.62-0.68 0.753-1.587 1.13-2.72 1.13v0c-1.133 0-2.04-0.377-2.72-1.13-0.687-0.747-1.03-1.62-1.03-2.62v0c0-1 0.343-1.877 1.03-2.63 0.68-0.747 1.587-1.12 2.72-1.12v0c1.1 0 2 0.373 2.7 1.12 0.7 0.753 1.05 1.63 1.05 2.63zM148.25-18.5v4.5h-23v-4.5zM187.5-35l-16.25 24.5v10.5h-7.25v-10.5l-16.25-24.5h8l11.75 17.75h0.25l11.75-17.75zM200-2.25v0c1.067 0 2.067-0.2 3-0.6 0.933-0.4 1.75-1.027 2.45-1.88 0.7-0.847 1.26-1.953 1.68-3.32 0.413-1.367 0.62-3.017 0.62-4.95v0c0-1.933-0.207-3.583-0.62-4.95-0.42-1.367-0.98-2.477-1.68-3.33-0.7-0.847-1.517-1.47-2.45-1.87-0.933-0.4-1.933-0.6-3-0.6v0c-1.067 0-2.067 0.2-3 0.6-0.933 0.4-1.75 1.023-2.45 1.87-0.7 0.853-1.257 1.963-1.67 3.33-0.42 1.367-0.63 3.017-0.63 4.95v0c0 1.933 0.21 3.583 0.63 4.95 0.413 1.367 0.97 2.473 1.67 3.32 0.7 0.853 1.517 1.48 2.45 1.88 0.933 0.4 1.933 0.6 3 0.6zM200-27v0c2.233 0 4.293 0.307 6.18 0.92 1.88 0.62 3.487 1.52 4.82 2.7 1.333 1.187 2.377 2.653 3.13 4.4 0.747 1.753 1.12 3.747 1.12 5.98v0c0 2.267-0.373 4.267-1.12 6-0.753 1.733-1.797 3.19-3.13 4.37-1.333 1.187-2.94 2.09-4.82 2.71-1.887 0.613-3.947 0.92-6.18 0.92v0c-2.267 0-4.333-0.307-6.2-0.92-1.867-0.62-3.467-1.523-4.8-2.71-1.333-1.18-2.373-2.637-3.12-4.37-0.753-1.733-1.13-3.733-1.13-6v0c0-2.233 0.377-4.227 1.13-5.98 0.747-1.747 1.787-3.213 3.12-4.4 1.333-1.18 2.933-2.08 4.8-2.7 1.867-0.613 3.933-0.92 6.2-0.92zM227.8-10h-6.55l-0.75-25h8zM228.25-3.25v0c0 1-0.343 1.873-1.03 2.62-0.68 0.753-1.587 1.13-2.72 1.13v0c-1.133 0-2.04-0.377-2.72-1.13-0.687-0.747-1.03-1.62-1.03-2.62v0c0-1 0.343-1.877 1.03-2.63 0.68-0.747 1.587-1.12 2.72-1.12v0c1.1 0 2 0.373 2.7 1.12 0.7 0.753 1.05 1.63 1.05 2.63z" data-fill-palette-color="primary" fill="#e8c50f" opacity="1"></path></g></svg></g></svg></g><g transform="matrix(1,0,0,1,0,84.54207386947368)"><svg viewBox="0 0 375.74399999999997 25.812977274420682" height="25.812977274420682" width="375.74399999999997"><g transform="matrix(1,0,0,1,0,0)"><svg width="375.74399999999997" viewBox="3 -36.25 670.99 46.1" height="25.812977274420682" data-palette-color="#f0be12"><path d="M44.2 0L33.25 0 33.25-12.4Q33.25-14.7 33.43-17.13 33.6-19.55 33.8-21.2 34-22.85 34.05-23.3L34.05-23.3 33.85-23.3 27.5 0 18.85 0 12.45-23.25 12.25-23.25Q12.3-22.8 12.53-21.18 12.75-19.55 12.95-17.13 13.15-14.7 13.15-12.4L13.15-12.4 13.15 0 3 0 3-34.4 18.6-34.4 23.8-14.55 24-14.55 29.15-34.4 44.2-34.4 44.2 0ZM77.5 0L69.35 0 68.7-4Q67.15-1.85 64.62-0.63 62.1 0.6 59.3 0.6L59.3 0.6Q54.7 0.6 52.4-1.95 50.1-4.5 50.1-9.3L50.1-9.3 50.1-26.4 60.05-26.4 60.05-10.5Q60.05-8.8 60.92-7.78 61.8-6.75 63.4-6.75L63.4-6.75Q65.25-6.75 66.4-7.95 67.55-9.15 67.55-10.9L67.55-10.9 67.55-26.4 77.5-26.4 77.5 0ZM96.1-27Q101.4-27 105.07-24.93 108.75-22.85 108.75-18.5L108.75-18.5 99.5-18.5Q99.5-19.95 98.2-20.55L98.2-20.55Q97.3-21.05 95.95-21.05L95.95-21.05Q92.35-21.05 92.35-19.35L92.35-19.35Q92.35-18.4 93.6-18 94.85-17.6 97.7-17.15L97.7-17.15Q101.2-16.65 103.55-15.98 105.9-15.3 107.65-13.58 109.4-11.85 109.4-8.75L109.4-8.75Q109.4-3.7 105.62-1.55 101.85 0.6 95.75 0.6L95.75 0.6Q92.25 0.6 89.15-0.38 86.05-1.35 84.1-3.4 82.15-5.45 82.15-8.6L82.15-8.6 91.4-8.6 91.4-8.4Q91.45-6.7 92.82-6.03 94.2-5.35 95.75-5.35L95.75-5.35Q99.9-5.35 99.9-7.3L99.9-7.3Q99.9-8.3 98.6-8.75 97.3-9.2 94.35-9.7L94.35-9.7Q90.8-10.3 88.52-11 86.25-11.7 84.55-13.38 82.85-15.05 82.85-18.05L82.85-18.05Q82.85-22.9 86.52-24.95 90.2-27 96.1-27L96.1-27ZM124.39-29.5L114.44-29.5 114.44-36.25 124.39-36.25 124.39-29.5ZM124.39 0L114.44 0 114.44-26.4 124.39-26.4 124.39 0ZM144.39-27Q150.89-27 154.92-24.23 158.94-21.45 158.94-15.75L158.94-15.75 149.29-15.75Q149.29-20.25 144.39-20.25L144.39-20.25Q139.49-20.25 139.49-14.6L139.49-14.6 139.49-11.75Q139.49-6.15 144.59-6.15L144.59-6.15Q149.69-6.15 149.69-10.75L149.69-10.75 158.94-10.75Q158.94-5 154.92-2.2 150.89 0.6 144.39 0.6L144.39 0.6Q137.44 0.6 133.49-2.9 129.54-6.4 129.54-13.2L129.54-13.2Q129.54-20 133.49-23.5 137.44-27 144.39-27L144.39-27ZM198.59-35Q203.69-35 207.44-33.75 211.19-32.5 213.19-30.35 215.19-28.2 215.19-25.6L215.19-25.6 215.19-24.35 206.34-24.35Q206.34-25.9 204.51-26.93 202.69-27.95 199.24-27.95L199.24-27.95Q196.04-27.95 194.36-26.73 192.69-25.5 192.69-23.75L192.69-23.75Q192.69-22.2 193.71-21.4 194.74-20.6 196.24-20.6L196.24-20.6 201.44-20.6 201.44-14.45 195.14-14.45Q193.59-14.45 192.61-13.53 191.64-12.6 191.64-10.85L191.64-10.85Q191.64-8.8 193.36-7.63 195.09-6.45 198.84-6.45L198.84-6.45Q206.34-6.45 206.34-10.9L206.34-10.9 206.34-20.6 222.14-20.6 222.14-14.45 215.29-14.45 215.29-11.1Q215.29-5.5 211.31-2.45 207.34 0.6 198.89 0.6L198.89 0.6Q190.19 0.6 185.84-2.2 181.49-5 181.49-9.6L181.49-9.6Q181.49-12.6 183.06-14.78 184.64-16.95 187.49-17.85L187.49-17.85 187.49-18.05Q185.34-18.85 183.91-20.8 182.49-22.75 182.49-25.15L182.49-25.15Q182.49-27.85 184.31-30.1 186.14-32.35 189.79-33.68 193.44-35 198.59-35L198.59-35ZM242.53 0L242.53-34.4 272.28-34.4 272.28-26.15 253.58-26.15 253.58-21.4 269.58-21.4 269.58-13.5 253.58-13.5 253.58-8.25 272.63-8.25 272.63 0 242.53 0ZM298.13-13.75L308.03 0 296.43 0 291.43-8.3 291.23-8.3 286.18 0 275.13 0 285.28-14 276.13-26.4 287.83-26.4 292.03-19.4 292.23-19.4 296.43-26.4 307.43-26.4 298.13-13.75ZM328.68-27Q334.03-27 336.93-23.5 339.83-20 339.83-13.15L339.83-13.15Q339.83-6.35 336.93-2.88 334.03 0.6 328.68 0.6L328.68 0.6Q324.08 0.6 321.28-2.4L321.28-2.4 321.28 9.85 311.33 9.85 311.33-26.4 319.43-26.4 320.28-22.65Q323.18-27 328.68-27L328.68-27ZM325.58-19.65Q323.38-19.65 322.28-18.1 321.18-16.55 321.18-14.05L321.18-14.05 321.18-12.4Q321.18-9.9 322.28-8.33 323.38-6.75 325.58-6.75L325.58-6.75Q329.88-6.75 329.88-11.9L329.88-11.9 329.88-14.55Q329.88-19.65 325.58-19.65L325.58-19.65ZM354.92 0L344.97 0 344.97-36.25 354.92-36.25 354.92 0ZM374.92-27Q381.87-27 385.85-23.48 389.82-19.95 389.82-13.2L389.82-13.2Q389.82-6.45 385.85-2.93 381.87 0.6 374.92 0.6L374.92 0.6Q367.97 0.6 364.02-2.9 360.07-6.4 360.07-13.2L360.07-13.2Q360.07-20 364.02-23.5 367.97-27 374.92-27L374.92-27ZM374.92-20.25Q370.02-20.25 370.02-14.6L370.02-14.6 370.02-11.75Q370.02-6.15 374.92-6.15L374.92-6.15Q379.87-6.15 379.87-11.75L379.87-11.75 379.87-14.6Q379.87-20.25 374.92-20.25L374.92-20.25ZM410.67-27.05Q411.82-27.05 412.72-26.78 413.62-26.5 413.62-26.45L413.62-26.45 413.62-18.1 410.42-18.1Q407.32-18.1 405.94-16.5 404.57-14.9 404.57-11.75L404.57-11.75 404.57 0 394.62 0 394.62-26.4 402.77-26.4 403.42-22.4Q404.32-24.7 406.27-25.88 408.22-27.05 410.67-27.05L410.67-27.05ZM430.72-27Q436.77-27 440.57-24.98 444.37-22.95 444.37-18.4L444.37-18.4 444.37-8.1Q444.37-7.25 444.77-6.7 445.17-6.15 445.97-6.15L445.97-6.15 447.77-6.15 447.77-0.4Q447.62-0.3 446.99-0.08 446.37 0.15 445.22 0.38 444.07 0.6 442.57 0.6L442.57 0.6Q439.67 0.6 437.79-0.28 435.92-1.15 435.22-2.7L435.22-2.7Q433.32-1.2 430.97-0.3 428.62 0.6 425.47 0.6L425.47 0.6Q416.17 0.6 416.17-6.8L416.17-6.8Q416.17-10.65 418.24-12.68 420.32-14.7 424.22-15.45 428.12-16.2 434.42-16.2L434.42-16.2 434.42-17.5Q434.42-19.05 433.34-19.85 432.27-20.65 430.57-20.65L430.57-20.65Q429.02-20.65 427.89-20.1 426.77-19.55 426.77-18.35L426.77-18.35 426.77-18.15 416.97-18.15Q416.92-18.4 416.92-18.85L416.92-18.85Q416.92-22.6 420.49-24.8 424.07-27 430.72-27L430.72-27ZM434.42-11.5Q430.17-11.5 428.14-10.58 426.12-9.65 426.12-8.1L426.12-8.1Q426.12-5.6 429.52-5.6L429.52-5.6Q431.47-5.6 432.94-6.65 434.42-7.7 434.42-9.25L434.42-9.25 434.42-11.5ZM462.16-26.4L467.76-26.4 467.76-19.65 462.16-19.65 462.16-9.6Q462.16-7.8 462.76-6.98 463.36-6.15 464.96-6.15L464.96-6.15 467.76-6.15 467.76-0.3Q466.56 0.1 464.66 0.35 462.76 0.6 461.36 0.6L461.36 0.6Q456.96 0.6 454.59-1 452.21-2.6 452.21-6.45L452.21-6.45 452.21-19.65 448.51-19.65 448.51-26.4 452.61-26.4 454.76-34.4 462.16-34.4 462.16-26.4ZM482.66-29.5L472.71-29.5 472.71-36.25 482.66-36.25 482.66-29.5ZM482.66 0L472.71 0 472.71-26.4 482.66-26.4 482.66 0ZM502.66-27Q509.61-27 513.58-23.48 517.56-19.95 517.56-13.2L517.56-13.2Q517.56-6.45 513.58-2.93 509.61 0.6 502.66 0.6L502.66 0.6Q495.71 0.6 491.76-2.9 487.81-6.4 487.81-13.2L487.81-13.2Q487.81-20 491.76-23.5 495.71-27 502.66-27L502.66-27ZM502.66-20.25Q497.76-20.25 497.76-14.6L497.76-14.6 497.76-11.75Q497.76-6.15 502.66-6.15L502.66-6.15Q507.61-6.15 507.61-11.75L507.61-11.75 507.61-14.6Q507.61-20.25 502.66-20.25L502.66-20.25ZM540.56-27Q545.15-27 547.46-24.45 549.75-21.9 549.75-17.1L549.75-17.1 549.75 0 539.81 0 539.81-15.9Q539.81-17.6 538.93-18.63 538.06-19.65 536.46-19.65L536.46-19.65Q534.61-19.65 533.46-18.45 532.31-17.25 532.31-15.5L532.31-15.5 532.31 0 522.36 0 522.36-26.4 530.5-26.4 531.15-22.4Q532.71-24.5 535.23-25.75 537.75-27 540.56-27L540.56-27ZM607.8 0L596.1 0 594.65-4.85 582.6-4.85 581.15 0 569.85 0 582.4-34.4 595.25-34.4 607.8 0ZM588.55-24.8L584.9-12.55 592.35-12.55 588.75-24.8 588.55-24.8ZM629.5-27Q634.85-27 637.75-23.5 640.65-20 640.65-13.15L640.65-13.15Q640.65-6.35 637.75-2.88 634.85 0.6 629.5 0.6L629.5 0.6Q624.9 0.6 622.1-2.4L622.1-2.4 622.1 9.85 612.15 9.85 612.15-26.4 620.25-26.4 621.1-22.65Q624-27 629.5-27L629.5-27ZM626.4-19.65Q624.2-19.65 623.1-18.1 622-16.55 622-14.05L622-14.05 622-12.4Q622-9.9 623.1-8.33 624.2-6.75 626.4-6.75L626.4-6.75Q630.7-6.75 630.7-11.9L630.7-11.9 630.7-14.55Q630.7-19.65 626.4-19.65L626.4-19.65ZM662.84-27Q668.19-27 671.09-23.5 673.99-20 673.99-13.15L673.99-13.15Q673.99-6.35 671.09-2.88 668.19 0.6 662.84 0.6L662.84 0.6Q658.24 0.6 655.44-2.4L655.44-2.4 655.44 9.85 645.49 9.85 645.49-26.4 653.59-26.4 654.44-22.65Q657.34-27 662.84-27L662.84-27ZM659.74-19.65Q657.54-19.65 656.44-18.1 655.34-16.55 655.34-14.05L655.34-14.05 655.34-12.4Q655.34-9.9 656.44-8.33 657.54-6.75 659.74-6.75L659.74-6.75Q664.04-6.75 664.04-11.9L664.04-11.9 664.04-14.55Q664.04-19.65 659.74-19.65L659.74-19.65Z" opacity="1" transform="matrix(1,0,0,1,0,0)" fill="#f0be12" class="undefined-text-1" data-fill-palette-color="secondary" id="text-1"></path></svg></g></svg></g></svg></g></svg></g><g transform="matrix(1,0,0,1,0,0.2758876278597313)"><svg viewBox="0 0 110.35505114389437 110.35505114389437" height="110.35505114389437" width="110.35505114389437"><g><svg version="1.1" xmlns:dc="http://purl.org/dc/elements/1.1/" xmlns:inkscape="http://www.inkscape.org/namespaces/inkscape" xmlns:rdf="http://www.w3.org/1999/02/22-rdf-syntax-ns#" xmlns:cc="http://creativecommons.org/ns#" xmlns:svg="http://www.w3.org/2000/svg" xmlns:sodipodi="http://sodipodi.sourceforge.net/DTD/sodipodi-0.dtd" xmlns="http://www.w3.org/2000/svg" xmlns:xlink="http://www.w3.org/1999/xlink" x="0" y="0" viewBox="0 0 100 100" enable-background="new 0 0 100 100" xml:space="preserve" height="110.35505114389437" width="110.35505114389437" class="icon-icon-0" data-fill-palette-color="accent" id="icon-0"><path d="M50 0C22.386 0 0 22.386 0 50s22.386 50 50 50 50-22.386 50-50S77.614 0 50 0zM50 14.156c19.799 0 35.844 16.044 35.844 35.844 0 19.799-16.045 35.844-35.844 35.844-19.799 0-35.844-16.045-35.844-35.844C14.156 30.201 30.201 14.156 50 14.156zM50 20.125c-16.505 0-29.875 13.37-29.875 29.875S33.495 79.875 50 79.875 79.875 66.505 79.875 50 66.505 20.125 50 20.125zM50 29.75c11.178 0 20.25 9.072 20.25 20.25S61.178 70.25 50 70.25 29.75 61.178 29.75 50 38.822 29.75 50 29.75z" fill="#e8c50f" data-fill-palette-color="accent"></path></svg><g></g></g></svg></g></svg></g></svg><rect width="395.52" height="80.93803302728845" fill="none" stroke="none" visibility="hidden"></rect></g></svg></g></svg>